<?xml version="1.0" encoding="UTF-8"?><svg id="Layer_1" xmlns="http://www.w3.org/2000/svg" viewBox="0 0 510.99 442.79"><defs><style>.cls-1{fill:#fff;}</style></defs><path class="cls-1" d="M0,105.76c4.74-9.79,12.73-12.35,23.2-12.13,25.93,.54,51.89,.22,77.83,.14,4.31-.01,8.06,1.39,8.91,5.54,.58,2.8-.33,6.67-2.06,8.92-1.35,1.76-4.97,2.44-7.59,2.45-25.78,.17-51.56,.1-77.33,.1-1.79,0-3.59,0-5.66,0v221.06H195.09c-38.31-27.05-58.78-63.53-58.85-110.09-.07-46.69,20.25-83.28,59.41-110.97-2.77,0-4.33,0-5.88,0-14.47,0-28.94,.03-43.41-.01-6.26-.02-10.17-3.33-10.19-8.44-.02-5.14,3.92-8.51,10.11-8.51,115.75-.01,231.51-.02,347.26,0,10.37,0,17.42,7.15,17.42,17.62,.03,73.32,.03,146.64,0,219.96,0,10.77-7.01,17.77-17.78,17.78-158.49,.02-316.99-.01-475.48,.07-8.91,0-13.74-5.16-17.7-12.01V105.76Zm315.86,226.08h177.82V111.08h-177.92c38.57,27.22,58.9,63.67,58.99,110.13,.08,46.68-20.22,83.31-58.89,110.63Zm41.66-103.9c.04-30.21-6.47-52.32-20.05-72.25-37.05-54.39-109.46-60.1-154.26-12.21-39.57,42.3-39.61,113.55-.1,155.93,35.39,37.96,89.41,43.78,129.82,13.35,30.07-22.64,43.66-53.79,44.59-84.82Z"/><path class="cls-1" d="M445.13,0c7.72,2.67,11.75,8.23,14.16,15.96,5.37,17.25,11.43,34.27,17.11,51.43,1.61,4.87-.54,9.5-4.78,11.12-4.63,1.77-9.25-.37-11.35-5.29-.45-1.06-.77-2.19-1.13-3.29-5.32-15.86-10.64-31.72-15.97-47.58-.47-1.4-.99-2.78-1.66-4.64-1.65,.42-3.21,.7-4.7,1.2-58.14,19.45-116.27,38.92-174.4,58.36-2.03,.68-4.12,1.43-6.22,1.63-4.58,.43-7.62-1.79-9-6.17-1.23-3.92,.58-7.98,4.63-9.86,2.54-1.18,5.27-1.98,7.94-2.87,57.84-19.37,115.69-38.72,173.52-58.11,1.35-.45,2.59-1.25,3.87-1.88,2.66,0,5.32,0,7.98,0Z"/><path class="cls-1" d="M69.58,425.67c12.45-4.13,24.38-8.07,36.29-12.06,48.08-16.12,96.15-32.26,144.22-48.38,1.1-.37,2.19-.8,3.32-1.01,4.89-.93,8.74,1.26,10.2,5.72,1.42,4.33-.48,8.65-5.13,10.44-6.33,2.44-12.82,4.49-19.26,6.65-53.56,17.95-107.12,35.89-160.68,53.81-14.28,4.78-21.83,.92-26.64-13.47-5.73-17.13-11.42-34.27-17.23-51.37-1.25-3.68-1.12-7.37,1.99-9.48,2.32-1.57,6.34-2.82,8.54-1.84,2.71,1.21,5.2,4.57,6.26,7.54,5.68,15.91,10.88,31.99,16.25,48.02,.52,1.56,1.06,3.11,1.85,5.43Z"/><path class="cls-1" d="M51.09,144.86c0,8.32,.04,15.93-.01,23.53-.05,6.77-3.15,10.51-8.54,10.49-5.39-.02-8.52-3.84-8.54-10.54-.03-10.13-.04-20.26,0-30.4,.03-6.92,3.17-10.12,9.99-10.16,10.47-.06,20.94-.06,31.4,0,5.96,.04,9.61,3.25,9.72,8.35,.12,5.3-3.53,8.64-9.81,8.71-7.79,.09-15.58,.02-24.21,.02Z"/><path class="cls-1" d="M51.08,298.14c8.32,0,15.93-.04,23.53,.01,6.78,.05,10.52,3.14,10.5,8.53-.02,5.4-3.84,8.53-10.54,8.55-10.14,.03-20.27,.04-30.41,0-6.92-.04-10.13-3.17-10.17-9.99-.06-10.46-.06-20.93,0-31.39,.03-5.95,3.26-9.6,8.35-9.72,5.29-.12,8.63,3.54,8.71,9.81,.09,7.79,.02,15.58,.02,24.21Z"/><path class="cls-1" d="M459.91,144.86c-8.28,0-15.88,.04-23.49-.01-6.81-.05-10.54-3.09-10.55-8.48-.01-5.42,3.79-8.58,10.48-8.59,10.14-.03,20.27-.04,30.41,0,7.13,.03,10.21,3.18,10.24,10.43,.04,10.13,.04,20.27,0,30.4-.02,6.42-3.07,10.12-8.31,10.27-5.46,.16-8.71-3.57-8.76-10.25-.06-7.63-.01-15.25-.01-23.76Z"/><path class="cls-1" d="M459.91,298.15c0-8.52-.05-16.15,.01-23.78,.06-6.67,3.32-10.41,8.77-10.25,5.24,.16,8.28,3.86,8.31,10.28,.04,10.3,.06,20.6,0,30.9-.04,6.59-3.25,9.87-9.74,9.92-10.63,.08-21.27,.08-31.9,0-5.86-.04-9.48-3.45-9.47-8.6,.01-5.12,3.56-8.36,9.57-8.44,7.93-.1,15.87-.02,24.47-.02Z"/><path class="cls-1" d="M246.75,270.84c0-13.51,.1-26.29-.17-39.05-.02-1.14-2.33-2.79-3.86-3.25-15.69-4.74-25.8-14.83-29.03-30.94-3.5-17.45,8.25-35.93,26.18-41.76,3.81-1.24,7.16-1.85,8.61-6.69,.61-2.03,5.11-4.29,7.55-3.99,2.67,.32,5.75,3.02,7.27,5.52,1.39,2.29,2.33,3.64,5.13,4.35,16.32,4.13,28,18.03,29.7,34.84,.53,5.22-2.41,9.44-7.22,10.34-4.56,.86-9.03-2.32-9.74-7.7-1.12-8.5-4.72-15.12-12.59-18.99-1.12-.55-2.41-.78-4.33-1.38,0,2.23,0,3.83,0,5.44,0,9.64,.24,19.28-.1,28.91-.17,4.9,.76,7.39,6.22,8.89,16.07,4.43,28.13,20.68,27.87,36.18-.27,16.37-12.94,32.07-29.72,36.41-2.72,.7-4.33,1.47-5.06,4.38-.96,3.8-3.98,5.76-7.79,5.81-4.04,.06-7.12-1.96-8.17-5.98-.7-2.66-2.08-3.49-4.68-4.14-16.37-4.11-28-17.75-29.9-34.67-.61-5.46,2.49-9.88,7.45-10.63,4.54-.69,8.83,2.55,9.55,8.02,1.15,8.75,5.05,15.32,13.22,19.06,.86,.39,1.83,.54,3.63,1.04Zm-.3-60.02v-38.12c-8.74,1.14-16.12,9.92-16.18,18.88-.06,9.15,7.16,17.78,16.18,19.24Zm18,59.63c9.72-1.87,16.85-11.05,16.27-20.25-.57-8.9-8.13-17.24-16.27-17.82v38.07Z"/></svg>