<?xml version="1.0" encoding="UTF-8"?><svg id="Layer_1" xmlns="http://www.w3.org/2000/svg" viewBox="0 0 512 490.05"><defs><style>.cls-1{fill:#fff;}.cls-2{fill:#f15f24;}.cls-3{fill:#55a947;}.cls-4{fill:#5fbb48;}</style></defs><path class="cls-1" d="M169.3,215.32c-19.05,12.66-29.17,25.87-46.83,48.91-26.77,34.93-26.53,46.19-26.16,50.4,.31,3.56,1.59,12.2,16.65,30.91,15.69,19.5,31.54,31.26,52.91,46.37,58.44,41.33,54.11,32.44,69.17,47.23,9.63,9.45,20.56,16.88,42.43,31.73,4.4,2.99,12.02,8.01,21.02,6.74,8.75-1.23,14.43-7.78,17.05-10.71,12.42-13.87-4.79,10.01,49.97-42.43,21.84-20.91,32.75-31.37,42.83-43.23,20.04-23.58,25.77-36.07,28.95-45.21,3.3-9.5,6.67-19.18,5.55-31.73-2.36-26.49-22.7-43.44-32.92-51.95-8.83-7.35-23.93-19.6-46.4-21.81-8.55-.84-30.57-3.01-41.02,9.72-11.04,13.45-1.68,34.44-10.54,38.66-5,2.38-11.91-2.44-16.26-5.55-19.67-14.07-17.41-30.3-32.12-48.78-2.12-2.66-21.54-26.35-49.18-27.36-16.99-.62-29.37,7.61-45.12,18.08Z"/><g><path class="cls-4" d="M180.07,172.45c-15.74,2.55-29.63,9.51-42.89,17.94-19.23-39.89-47.01-72.84-81.22-100.79-16.2-13.24-33.64-24.5-51.63-35.04-2.39-1.4-4.79-2.36-4.24-5.92,.53-3.43,1.15-6.17,5.01-7.82,17.18-7.33,34.72-6.49,51.96-1.51,25.93,7.49,49.22,20.16,69.18,38.57,1.19,1.09,2.24,3.45,4.34,2.51,1.79-.81,1.51-3.12,1.81-4.78,6.65-36.62,29.41-59.77,62.44-74.3,1.99-.88,4.14-1.56,6.52-1.2,7.18,1.08,8.89,4.15,5.49,10.57-4.91,9.27-9.98,18.39-13.5,28.39-5.68,16.1-9.03,32.68-12.01,49.4-.27,1.51-1.43,3.24,.54,4.09,2,.86,3.06-.76,4.25-2.28,6.2-7.89,12.69-15.53,20.23-22.21,11.47-10.16,23.65-19.24,38.24-24.57,1.21-.44,2.56-.52,5.18-1.02-8.27,10.42-16.01,19.72-23.26,29.38-20.44,27.23-36.39,56.83-46.7,89.35-1.22,3.86-.71,7.51,.28,11.24Zm-5.51-146.16c-1.01-.12-1.57-.37-1.82-.19-17.97,13.27-30.4,30.41-33.98,52.6-1.11,6.91-3.74,15,.24,21.59,3.92,6.49,7.63,13.14,11.87,19.45,.95,1.41,1.5,4.07,3.53,3.55,2.58-.67,1.44-3.43,1.44-5.27,.11-25,4.47-49.24,12.09-73.04,2-6.25,4.76-12.27,6.63-18.7Z"/><path class="cls-4" d="M387.38,222.74c-6.67-2.03-12.96-5.38-20.08-5.9,2.3-6.57,1.1-13.4,.82-20-1.45-33.78-6.89-66.74-22.57-97.26-2.45-4.77-5.33-9.34-8.2-13.88-1.94-3.07-3.25-6.06-.54-9.23,2.53-2.96,5.52-1.79,8.5-.68,23.19,8.58,41.79,22.43,52.15,45.56,1.82,4.06,3.03,8.43,4.24,12.73,1.16,4.11,1.79,6.06,6.12,1.81,18.72-18.34,40.26-32.17,66.11-38.35,10.4-2.49,20.82-2.67,31.15,.76,3.18,1.06,5.96,2.51,6.76,5.89,.9,3.81-2.58,4.84-4.91,6.36-36.69,23.83-67.03,53.83-89.05,91.75-5.38,9.26-9.61,19.19-14.37,28.81-1.85-1.26-4.36-1.5-5.64-3.63,4.24-14.48,10.45-28.05,18.87-40.61,7.49-11.18,15.09-22.25,25.07-31.45,.94-.86,2.45-1.82,1.75-3.31-.76-1.61-2.26-.83-3.5-.33-18.85,7.61-32.93,20.27-42.14,38.51-5.22,10.34-7.25,21.57-10.55,32.45Z"/><path class="cls-3" d="M387.38,222.74c3.3-10.88,5.33-22.11,10.55-32.45,9.21-18.24,23.29-30.9,42.14-38.51,1.24-.5,2.73-1.28,3.5,.33,.7,1.48-.81,2.44-1.75,3.31-9.98,9.2-17.58,20.27-25.07,31.45-8.42,12.56-14.62,26.13-18.87,40.61-3.88-.74-7.14-2.85-10.51-4.74Z"/><path class="cls-2" d="M430.51,252.8c-7.7-8.91-18.27-14.12-26.98-21.69-1.85-1.26-4.36-1.5-5.64-3.63-3.88-.74-7.14-2.86-10.51-4.74-6.67-2.03-12.96-5.38-20.08-5.9-1.59,.35-3.05-.27-4.58-.49-18.36-2.56-38.49,2.13-47.61,22.73-3.7,8.37-4.72,17.21-7.26,25.74-.52,1.74,.44,4.96-2.33,4.75-2.21-.17-1.83-3.09-2.1-5.1-2.04-15.33-5.34-30.25-13.88-43.58-11.84-18.47-28.58-31.21-48.19-40.15-11.74-5.35-24.18-8.52-37.45-8.99-8.03-.28-15.89,.98-23.84,.68-15.74,2.55-29.63,9.51-42.89,17.94-2.95,4.87-8.11,7.48-11.9,11.51-20.48,21.79-31.96,47.24-34.68,77.27-2.12,23.46,2.79,45.05,13.85,65.08,15.96,28.9,39.52,50.99,66.73,69.42,17.28,11.71,35.46,22.1,51.56,35.56,13.84,11.58,28.06,22.68,44.06,31.36,6.52,3.54,13.3,6.55,20.21,8.69,9.71,3,17.2-3.16,24.19-8.94,9.5-7.85,18.7-16.07,28.23-23.87,24.96-20.45,50.3-40.54,71.54-64.99,20.09-23.12,38.24-47.38,39.52-79.9,.87-22.19-5.33-41.82-19.99-58.76ZM99.79,327.18c9.67,0,18.33-2.17,26.88-7.26-3.52,10.08-19.4,14.2-26.88,7.26Zm154.99-33.31c1.49-.94,3.04-2.57,4.69-.63,1.27,1.49,.18,2.99-.94,4.16-15.3,15.89-33.58,23.49-56.06,15.51-.57-.2-.99-.8-2.87-2.38,11.59-1.06,21.64-2.59,31.47-5.53,8.51-2.55,16.27-6.43,23.7-11.13Zm-31.71-69.9c1.42-.89,2.71-1.82,4.06-.11,1,1.28,.4,2.44-.42,3.64-10.19,14.88-40.86,22.4-57.09,13.95-.97-.51-1.91-1.1-2.86-1.65,20.72-1.71,39.44-5.28,56.31-15.84Zm-73.97,74.18c-1.04-.41-2.17-.66-2.49-2.1,1.6-2.11,3.99-1.36,6.08-1.43,17.13-.57,33.34-4.39,48.24-13.16,1.62-.96,3.56-3.8,5.6-.57,1.63,2.57-1.01,3.55-2.36,4.78-15.98,14.5-33.85,20.85-55.06,12.48Zm79.78,69.31c-5.91,9.13-24.5,14.49-34.62,9.9-.51-.23-.76-1.01-1.35-1.85,12.12-1.04,23.32-4.1,33.33-10.72,.92-.61,2.01-1.29,3.04-.25,1.05,1.06,.21,1.98-.4,2.93Zm52.29,23.22c-6.48,8.58-24.52,13.37-34.58,9.17-1.05-.44-2.02-.98-2.17-3.22,12.02-.16,23.34-2.34,33.68-8.35,1.13-.66,2.48-1.58,3.69-.46,1.08,1,.06,1.98-.61,2.86Zm47.04,56.21c-.57,1.81-2.16,1.06-3.42,.87-11.98-1.81-22.37-12.1-25.29-25.8,4.38,1.13,5.49,4.71,7.7,7.02,5.61,5.88,11.19,11.71,18.85,15,1.22,.53,2.69,1.24,2.17,2.9Zm14.99-48.68c-.21,1.26-1.24,1.55-2.52,1.61-11.59,.56-26.72-14.13-26.98-27.19,3.17,3.66,5.73,6.92,8.61,9.89,5.31,5.48,11.27,10.13,18.4,13.11,1.16,.49,2.79,.79,2.49,2.58Zm-20.68-157.93c8.57,12.4,17.22,22.63,30.07,28.26,1.09,.48,2.09,1.18,1.79,2.47-.41,1.74-1.9,1.65-3.27,1.39-12.34-2.33-28.82-13.71-28.59-32.12Zm76.11,143.32c-.48,1.46-1.75,1.99-3.25,1.73-18.6-3.19-41.77-15.91-43.75-43.6,10.13,13.81,20.32,25.1,33.73,32.95,3.68,2.15,7.6,3.88,11.42,5.8,1.3,.65,2.37,1.54,1.85,3.12Zm3.25-49.71c-2.1,4.52-7.22,.54-10.62-.52-18.65-5.83-30.3-18.3-34.37-37.58-.23-1.11,.1-1.63,1.37-3.06,9.86,13.46,20.33,26.1,35.07,34.33,.39,.22,.74,.51,1.09,.79,2.62,2.11,8.95,2.83,7.46,6.04Zm34.51-24.53c-1.05,2.46-3.08,1.15-4.7,.85-22.49-4.21-38.35-21.09-41.03-45.56,3.9,5.23,6.56,9,9.42,12.61,9.17,11.57,19.71,21.53,33.33,27.82,1.75,.81,4.18,1.46,2.98,4.28Z"/><path class="cls-3" d="M174.56,26.29c-1.87,6.43-4.63,12.45-6.63,18.7-7.61,23.8-11.98,48.04-12.09,73.04,0,1.84,1.13,4.6-1.44,5.27-2.03,.53-2.58-2.14-3.53-3.55-4.24-6.31-7.95-12.96-11.87-19.45-3.98-6.59-1.36-14.68-.24-21.59,3.58-22.19,16.01-39.33,33.98-52.6,.25-.18,.81,.07,1.82,.19Z"/></g></svg>