<?xml version="1.0" encoding="UTF-8"?><svg id="Layer_1" xmlns="http://www.w3.org/2000/svg" viewBox="0 0 473.57 512"><defs><style>.cls-1{fill:#fff;}</style></defs><path class="cls-1" d="M6.26,512c-1.98-5.43-5.33-10.78-5.67-16.32-.83-13.55,.34-27.23-.39-40.79-2.14-39.52,13.41-69.06,49.24-88.41-1.8-2.48-3.17-4.75-4.9-6.69-14.95-16.81-20.02-36.01-12.27-57.33,7.69-21.16,23.52-33.86,45.72-36.72,9.1-1.17,15.05-4.56,21.16-11.06,7.52-8,16.84-14.31,25.95-21.81-14.43-15.43-24.07-33.12-18.53-55.45,6-24.19,21.29-39.34,46.04-43.33,9.35-1.51,15.77-5.19,22.05-12.36,6.95-7.95,16.36-13.74,25.93-21.45-15.61-14.7-24.68-33.92-18.42-55.7,3.4-11.84,11.37-24.07,20.71-32.16,21.83-18.89,53.47-15.53,73.7,5.29,22.68,23.34,21.38,51.29-3.33,82.2,10.56,9.72,20.94,19.52,31.64,28.96,2.23,1.97,5.59,3.65,8.48,3.75,46.07,1.51,75.36,59.82,34.38,99.51,10.73,9.97,21.34,20.1,32.34,29.78,2.13,1.87,5.79,2.55,8.81,2.77,24.67,1.79,43,13.24,52.21,36.4,9.07,22.82,3.09,43.17-13.55,60.71-.91,.96-1.54,2.2-2.97,4.29,24.05,13.32,43.13,31.94,46.78,59.47,3.36,25.38,1.85,51.43,1.91,77.18,0,3.09-3.56,6.19-5.47,9.29h-5.63c-1.98-5.41-5.43-10.75-5.67-16.23-.77-17.26,.26-34.61-.48-51.87-1.65-38.46-30.51-66.96-67.05-66.98-37.04-.02-66.05,29.31-67.14,68.34-.47,16.82,.38,33.68-.38,50.47-.25,5.5-3.66,10.85-5.63,16.27h-5.63c-1.98-5.4-5.43-10.74-5.67-16.23-.77-17.27,.26-34.61-.48-51.88-1.65-38.47-30.51-66.97-67.05-66.98-37.05-.01-66.12,29.34-67.18,68.32-.46,16.82,.37,33.68-.38,50.48-.25,5.5-3.63,10.86-5.58,16.28h-5.63c-1.98-5.4-5.43-10.74-5.67-16.23-.77-17.27,.26-34.61-.48-51.88-1.65-38.46-30.52-66.97-67.05-66.98-37.05-.01-66.11,29.34-67.18,68.32-.46,16.82,.37,33.68-.38,50.48-.25,5.5-3.63,10.86-5.59,16.29H6.26Zm154.83-111.2c12.52-11.74,25.83-24.22,39.31-36.86-13.76-13.37-21.65-29.83-19.09-49.9,2.53-19.81,14.35-33.81,30.93-43.84-27.71-37.67-87.04-28.44-101.39,.85,16.85,10.23,27.81,24.73,30.06,44.73,2.26,20.03-7.13,35.85-18.97,48.44,13.66,12.76,26.46,24.73,39.14,36.58Zm191.36-36.96c-13.56-12.82-21.29-28.88-19.28-48.46,2.03-19.85,13.53-33.99,29.73-44.5-26.51-33.78-73.43-34.48-102.67-1.63,17.34,10.19,29.74,24.31,32.5,44.79,2.77,20.53-6.13,37.1-18.81,50.14,13.81,12.97,26.86,25.23,39.08,36.71,12.28-11.54,25.33-23.8,39.44-37.06Zm-65.66-227.04c-28.4-38.44-88-25.99-100.47,1.73,16.87,9.97,28.2,24.19,30.67,44.2,2.54,20.5-6.56,36.89-19.25,49.56,10.84,9.73,20.83,18.08,30.04,27.22,5.06,5.02,9.13,7.67,15.2,1.93,10.33-9.78,20.85-19.35,31.3-29.03-25.45-26.81-30.65-65.12,12.51-95.62Zm-13.38,52.5c.14,20.61,16.88,37.51,37.43,37.79,20.76,.28,38.84-17.7,38.61-38.41-.23-21.12-17.71-37.73-39.26-37.33-20.95,.4-36.92,16.87-36.78,37.95ZM237.01,18.89c-21.61-.21-38.78,16.48-38.74,37.65,.04,20.38,16.98,37.49,37.52,37.91,21.11,.43,38.28-16.67,38.25-38.11-.03-21.24-15.86-37.24-37.04-37.45ZM123.62,189.56c.22,20.89,16.68,37.4,37.42,37.53,21.17,.13,38.18-17.19,37.9-38.6-.28-21.56-17.15-37.64-38.97-37.14-20.97,.48-36.57,16.89-36.35,38.2Zm-38.82,93.95c-21.23,.08-37.21,15.9-37.46,37.08-.26,21.52,16.55,38.61,37.86,38.48,20.83-.13,37.18-16.51,37.4-37.47,.23-21.89-15.93-38.18-37.8-38.09Zm189.76,37.43c-.06-21.27-15.87-37.24-37.05-37.43-21.85-.2-38.36,16.1-38.24,37.75,.12,20.94,16.33,37.44,37.16,37.82,21.29,.39,38.19-16.5,38.12-38.14Zm113.83-37.43c-21.14,.21-36.94,16.23-36.97,37.49-.03,21.62,16.92,38.53,38.17,38.07,20.91-.44,36.97-16.88,37-37.88,.04-21.83-16.26-37.9-38.21-37.68Z"/></svg>