<?xml version="1.0" encoding="UTF-8"?><svg id="Layer_1" xmlns="http://www.w3.org/2000/svg" viewBox="0 0 507.53 507.2"><defs><style>.cls-1{fill:#fff;}</style></defs><path class="cls-1" d="M258.57,0c10.86,1.13,21.79,1.84,32.58,3.48,49.73,7.56,93.33,28.34,131.12,61.45,1.99,1.75,4,3.49,7.02,6.12,14.09-14.48,27.8-28.76,41.72-42.82,8.87-8.96,20.56-9.11,29.91-.8,5.73,5.1,6.58,11.9,6.59,18.96,.02,25.78,.01,51.56,.01,77.34,0,20.97,.02,41.94,0,62.91-.02,16.96-8.25,25.28-25.01,25.29-47.13,.01-94.25-.02-141.37,.03-8.35,0-15.56-1.95-20.3-9.57-5.94-9.57-5.14-18.66,2.8-26.68,13.53-13.67,27.19-27.22,40.78-40.84,1.34-1.34,2.61-2.75,4.29-4.52-11.61-11.15-24.35-20.27-38.46-27.29-100.07-49.79-223.51,8.56-242.61,123.87-15.35,92.63,46.7,178.83,139.94,193.36,63.08,9.84,115.72-11.21,157.01-60.05,7.65-9.05,13.04-9.51,21.39-1.12,13.57,13.63,27.13,27.28,40.67,40.94,6.23,6.29,6.5,10.94,.82,17.58-41.26,48.25-93.15,78.05-156.03,86.74-86.94,12.01-161.54-14.54-222.21-77.46C30.65,386.9,8.87,338.01,2.31,282.61c-.94-7.98-1.55-16-2.31-24,0-3.08,0-6.16,0-9.24,.29-2.07,.76-4.14,.83-6.22,1.37-38.51,11.54-74.68,29.95-108.37C71.26,60.7,134.01,17.76,216.75,3.47,227.49,1.61,238.47,1.12,249.33,0,252.41,0,255.49,0,258.57,0Z"/></svg>