<?xml version="1.0" encoding="UTF-8"?><svg id="Layer_1" xmlns="http://www.w3.org/2000/svg" viewBox="0 0 511.42 507.07"><defs><style>.cls-1{fill:#fff;}</style></defs><path class="cls-1" d="M0,239.68c1.31-9.51,2.39-19.06,3.96-28.53,4.63-27.93,14.19-54.17,27.83-78.93,19.51-35.43,46.09-64.56,79.33-87.5,28.49-19.66,59.87-32.83,93.86-39.49,67.3-13.2,130-1.41,188.08,35.04,1.4,.88,2.82,1.74,4.66,2.87,4.18-6,8.32-11.93,12.46-17.87,1.14-1.64,1.99-3.63,3.47-4.84,2.17-1.76,4.9-4.2,7.18-4,1.86,.16,4.27,3.54,4.96,5.92,6.42,22.31,12.6,44.69,18.68,67.09,2.15,7.92-2.31,14.46-10.55,15.27-19.18,1.88-38.39,3.46-57.59,5.16-3.81,.34-7.64,1.08-11.41,.87-2.74-.16-7.03-.93-7.72-2.62-.93-2.27,.24-6.12,1.74-8.52,4.65-7.47,9.87-14.58,15.55-22.81-10.5-5.61-20.56-11.63-31.14-16.51-28.49-13.12-58.65-19.32-89.93-18.84-45.95,.7-87.91,14.27-124.95,41.75-40.09,29.75-66.84,68.81-79.92,117.06-7.49,27.62-9.1,55.66-4.95,83.95,10.2,69.58,45.91,122.1,106.41,157.71,20.78,12.23,43.35,19.87,67,24.47,9.62,1.87,16.05,8.75,17.32,17.61,1.18,8.22-2.99,17.3-10.83,20.64-4.34,1.85-9.84,2.88-14.4,2.04-46.63-8.61-87.74-28.77-123.22-60.29C46.59,411.51,20.49,368.53,7.89,317.6c-3.37-13.63-4.67-27.77-6.94-41.67-.24-1.45-.63-2.87-.95-4.31,0-10.65,0-21.29,0-31.94Z"/><path class="cls-1" d="M226.24,187.29c0-26.27-.04-52.55,.02-78.82,.03-10.46,5.03-17.1,13.66-18.58,10.32-1.77,19.43,5.58,19.5,16.07,.13,19.29,.05,38.58,.05,57.87,0,27.6,.09,55.21-.1,82.81-.03,3.75,1.25,5.48,4.46,7.13,42.37,21.77,84.66,43.68,126.96,65.59,9.29,4.81,12.89,11.76,10.6,20.09-2.68,9.69-12.48,14.88-21.9,11.24-4.62-1.79-8.99-4.25-13.41-6.53-45.12-23.31-90.2-46.71-135.39-69.89-3.53-1.81-4.56-3.85-4.54-7.64,.16-26.44,.08-52.88,.09-79.32Z"/><path class="cls-1" d="M475.72,147.84c6.6,.23,13.11,4.23,16.65,12.28,2.33,5.29,4.28,10.8,5.89,16.35,2.77,9.6-1.83,19.41-10.76,23.78-8.59,4.21-20.16,2.38-24.85-5.93-4.45-7.89-7.9-16.96-9.14-25.88-1.58-11.31,8.51-20.53,22.21-20.6Z"/><path class="cls-1" d="M500.16,327.29c-1.37,7.41-3.69,16.47-8.95,24.22-5.48,8.08-16.17,10.28-24.91,6.08-8.99-4.33-13.69-13.52-11.18-23.05,1.6-6.07,3.66-12.08,6.17-17.83,3.86-8.86,13.53-13.24,23.17-11.1,9.2,2.04,15.66,10.21,15.7,21.69Z"/><path class="cls-1" d="M436.52,428.48c-10.4-.38-16.5-3.95-20.21-10.95-3.6-6.78-3.62-13.9,.67-20.35,3.49-5.23,7.48-10.19,11.75-14.81,6.85-7.41,18.14-8.31,26.37-2.59,8.07,5.61,11.71,16.53,6.8,25.06-4.08,7.08-9.61,13.52-15.45,19.29-2.88,2.84-7.89,3.52-9.93,4.36Z"/><path class="cls-1" d="M511.42,254.13c-.52,4.42-.45,9.01-1.67,13.23-2.57,8.84-12.29,15.07-20.68,13.95-10.96-1.47-18.4-8.79-18.96-19.02-.31-5.79-.51-11.64-.12-17.41,.74-11.03,9.65-19.13,20.43-19.06,10.85,.07,19.81,8.69,20.46,19.79,.17,2.81,.02,5.65,.02,8.47,.17,.02,.34,.04,.51,.05Z"/><path class="cls-1" d="M309.76,463.06c12.26,.1,20.77,6.99,22.47,16.22,1.87,10.15-3.17,20-12.74,23.25-6.23,2.12-12.81,3.6-19.34,4.39-10.83,1.31-20.42-6.25-22.41-16.85-1.9-10.11,4.56-20.43,15-23.28,6.37-1.74,12.92-2.85,17.03-3.73Z"/><path class="cls-1" d="M373.37,479.27c-8.71,.2-16.32-4.81-19.47-12.82-3.23-8.23-1.28-17.54,5.77-22.95,5.49-4.21,11.51-7.92,17.71-10.99,7.73-3.84,17.3-1.29,23.11,5.24,5.99,6.73,6.96,16.32,2.45,24.05-4.13,7.07-21.42,17.29-29.57,17.48Z"/></svg>