<?xml version="1.0" encoding="UTF-8"?><svg id="Layer_1" xmlns="http://www.w3.org/2000/svg" viewBox="0 0 419.8 512"><defs><style>.cls-1{fill:#fff;}</style></defs><path class="cls-1" d="M217.85,0c8.29,7.9,11.3,17.44,10.42,28.91-.79,10.27,.17,20.66-.32,30.97-.53,11.35-6.34,19.15-18.23,19.13-11.86-.03-17.79-7.76-18.17-19.16-.45-13.46-1.22-27.07,.34-40.36C192.69,12.7,198.27,6.48,201.69,0c5.39,0,10.77,0,16.16,0Z"/><path class="cls-1" d="M129.94,16.02c2.42,2.2,9.04,5.78,11.9,11.3,6.55,12.67,11.42,26.23,16.66,39.55,4.15,10.54,.34,18.65-9.25,23.59-9.3,4.79-19.33,.48-24.08-10.27-5.79-13.09-11.37-26.31-16.2-39.77-4.59-12.81,3.52-24.26,20.96-24.41Z"/><path class="cls-1" d="M281.08,92.78c-16-.27-24.91-11.96-20.87-23.41,5.02-14.26,10.78-28.33,17.23-42,4.56-9.68,12.93-13.78,23.26-8.71,9.68,4.75,13.44,12.63,9.08,23.27-5.41,13.18-10.07,26.75-16.58,39.36-2.85,5.53-9.48,9.11-12.11,11.49Z"/><path class="cls-1" d="M339.48,154.4c-1.57-25.13-5.76-32.34-20.44-32.41-72.69-.36-145.38-.3-218.06-.05-13.06,.05-19.44,7.17-20.25,20.19-.22,3.5-.32,7.01-.55,12.05-9.81,0-19.13-.32-28.42,.06-27.07,1.1-47.61,18.26-50.52,44.93-1.89,17.25-1.54,35.09,.51,52.35,3.65,30.75,21.73,51.37,50.17,62.91,18.24,7.4,36.67,14.34,54.9,21.77,4.02,1.64,8.07,3.93,11.2,6.88,16.6,15.69,33.02,31.58,49.23,47.68,3.27,3.24,7.35,7.56,7.6,11.6,.92,14.64,.36,29.38,.36,43.98-2.61,.64-3.84,1.16-5.1,1.22-36.21,1.93-48.44,15.75-46.42,51.84,.46,8.24,3.52,12.58,12.04,12.58,49.36-.04,98.72,.24,148.06-.51,4.02-.06,10.91-6.64,11.44-10.83,4.46-34.9-10.03-51.59-44.56-53.03-1.7-.07-3.38-.45-5.26-.71-3.11-27.96-1.96-50.48,22.98-72.56,30.16-26.71,61.66-46.78,99-60.7,14.54-5.42,27.39-18.28,37.98-30.4,7.45-8.53,9.79-21.53,14.42-32.54v-51.22c-11.19-42.39-43.25-49.28-80.31-45.08ZM36.95,238.14c-.12-10.33,.01-20.66-.01-30.99-.02-10.29,4.68-16.1,15.32-16.2,8.9-.08,17.8-.02,26.46-.02,2.42,33.59,4.69,65.15,6.94,96.52-26.55-.14-48.38-21.03-48.71-49.32Zm173.21,87.35c-42.44,.37-78.24-35.44-77.87-77.89,.36-42.61,34.69-76.24,77.68-76.11,42.72,.12,77,34.21,77.2,76.77,.2,42.06-34.51,76.86-77.01,77.23Zm173.06-95.57c-.22,35.5-14.42,51.65-49.05,57.74,2.19-31.35,4.42-63.17,6.72-96.06,41.89-3.5,42.6-2.85,42.34,38.32Z"/><path class="cls-1" d="M201.64,248.61c8.66-9.49,16.92-18.81,25.47-27.86,7.75-8.21,16.89-9.25,24.66-1.09,7.29,7.65,5.69,16.42-1.69,23.86-11.98,12.09-24.03,24.12-36.06,36.16-.95,.95-1.88,1.95-2.97,2.7-8.8,6.11-17.55,5.25-23.81-2.95-9.04-11.84-29.93-17.77-21.67-38.79,3.3-8.39,15.17-9.87,23.2-3.85,3.89,2.92,7.22,6.58,12.88,11.81Z"/></svg>